# xmcd
#
# Track frame offsets:
#	150
#	20165
#	48243
#	73880
#	96348
#	116963
#	135238
#	156780
#	186940
#	207615
#	232511
#	249010
#	270254
#	299149
#	321059
#	340987
#
# Disc length: 4827 seconds
#
# Revision: 1
# Processed by: cddbd v1.5.2PL0 Copyright (c) Steve Scherf et al.
# Submitted via: EasyCDDAExtractor 16.0.9.1
#
DISCID=ec12d910
DTITLE=Nhieu Nghe Si - Thanh Tung - 16 Tinh khuc dac sac
DYEAR=1900
DGENRE=Vietnamesse
TTITLE0=Thanh Lam - Giot Nang Ben Them
TTITLE1=Tran Thu Ha - Mot Thoang Que Huong
TTITLE2=Hong Nhung - Mot Minh
TTITLE3=Bang Kieu and My Linh - Trai Tim Khong Ngu Yen
TTITLE4=Thanh Lam - Loi Cu Ta Ve
TTITLE5=Thanh Lan - Mua Ngau
TTITLE6=Ngoc Anh - Vinh Biet Mua He
TTITLE7=Tran Thu Ha - Hoa Tim Ngoai San
TTITLE8=Hong Nhung - Giot Suong Tren Mi Mat
TTITLE9=Thanh Lam - Em Va Toi
TTITLE10=Thuy Tien - Pho Bien
TTITLE11=Lam Truong - Tinh Khong Bien Gioi
TTITLE12=Tran Thu Ha - Chuyen Tinh Cua Bien
TTITLE13=Minh Anh - Hoang Hon Mau La
TTITLE14=Tam Ca 3A - Hat Voi Chu Ve Con
TTITLE15=Cam Van - Ngoi Sao Co Don
EXTD=
EXTT0=
EXTT1=
EXTT2=
EXTT3=
EXTT4=
EXTT5=
EXTT6=
EXTT7=
EXTT8=
EXTT9=
EXTT10=
EXTT11=
EXTT12=
EXTT13=
EXTT14=
EXTT15=
PLAYORDER=
